<?xml version="1.0" encoding="utf-8"?>
<!-- Generator: Adobe Illustrator 27.6.1, SVG Export Plug-In . SVG Version: 6.00 Build 0)  -->
<svg version="1.1" id="Layer_1" xmlns="http://www.w3.org/2000/svg" xmlns:xlink="http://www.w3.org/1999/xlink" x="0px" y="0px"
	 viewBox="0 0 512 512" style="enable-background:new 0 0 512 512;" xml:space="preserve">
<style type="text/css">
	.st0{fill:#053EFF;}
</style>
<path class="st0" d="M191.3,267.9H145v50.7h46.3c14,0.1,25.4-11.2,25.5-25.2s-11.2-25.4-25.2-25.5
	C191.5,267.9,191.4,267.9,191.3,267.9z"/>
<path class="st0" d="M212.6,213c0-13.2-10.7-23.9-23.9-23.9l-0.1-0.1v0.1H145V237h43.7C201.9,236.9,212.6,226.2,212.6,213z"/>
<path class="st0" d="M334.6,240.3c-15.5,0-28.5,11.6-30.3,26.9H365C363.1,251.8,350.1,240.3,334.6,240.3z"/>
<path class="st0" d="M256,0C114.6,0,0,114.6,0,256s114.6,256,256,256s256-114.6,256-256S397.4,0,256,0z M203.3,349.5h-94.8V158.1
	h91.9c26.9,0,48.7,21.8,48.7,48.7c0,18.2-10.2,35-26.4,43.3c26.4,10.7,39.1,40.8,28.4,67.2C243.3,336.8,224.3,349.5,203.3,349.5
	L203.3,349.5z M287.6,169.3h92.9v22.8h-92.9V169.3z M401,292.1h-96.4c0,0.4,0,0.8,0,1.2c0,17.4,14.1,31.5,31.5,31.5
	c11.2,0,21.6-5.9,27.2-15.6h0.1h36.9c-9,30.7-35.9,44.4-65.2,44.4c-38.8,0-67.7-32-67.7-71.5s28.9-71.5,67.7-71.5
	S407.9,244.1,401,292.1z"/>
</svg>
